Coordinates
version=1
nRows=5
nColumns=40
inDegrees=yes

Units are S.I. units (second, meters, Newtons, ...)
Angles are in degrees.

endheader
time	pelvis_tilt	pelvis_list	pelvis_rotation	pelvis_tx	pelvis_ty	pelvis_tz	hip_flexion_r	hip_adduction_r	hip_rotation_r	knee_angle_r	knee_angle_r_beta	ankle_angle_r	subtalar_angle_r	mtp_angle_r	hip_flexion_l	hip_adduction_l	hip_rotation_l	knee_angle_l	knee_angle_l_beta	ankle_angle_l	subtalar_angle_l	mtp_angle_l	lumbar_extension	lumbar_bending	lumbar_rotation	arm_flex_r	arm_add_r	arm_rot_r	elbow_flex_r	pro_sup_r	wrist_flex_r	wrist_dev_r	arm_flex_l	arm_add_l	arm_rot_l	elbow_flex_l	pro_sup_l	wrist_flex_l	wrist_dev_l
      9.42414286	     -7.45280976	     -5.48281104	     -2.86124121	      0.95213184	      0.93158006	      0.43852697	     41.06387423	     -4.06440472	     -6.71391959	     62.21315765	     62.21315765	      3.42995175	    -14.38731674	      1.47039547	     14.51650407	     -6.99499434	    -10.73133974	     19.17137547	     19.17137547	     13.47810330	     -8.70590410	     -1.72244677	    -13.66131236	      5.13667699	      1.61069158	     -0.08782882	    -13.87401092	     -6.40434505	     61.95158893	     46.06861176	      0.00000000	      0.00000000	     16.75177487	    -16.09120000	     -2.61490692	     62.86801522	     46.68679411	      0.00000000	      0.00000000
      9.43578571	     -7.49868762	     -5.52307753	     -3.10446076	      0.95144262	      0.93152974	      0.43876712	     41.57031653	     -3.71991875	     -6.76993135	     59.55634675	     59.55634675	      3.16448237	    -13.64288243	      1.28381533	     13.73807675	     -7.00558996	    -10.91095985	     18.69975246	     18.69975246	     13.68701161	     -8.67058900	     -1.99182502	    -13.68451435	      5.24407687	      1.82505807	     -0.78406474	    -13.89679983	     -6.80886675	     56.71838606	     46.23164427	      0.00000000	      0.00000000	     17.82482729	    -16.40775406	     -3.10648122	     65.79632153	     46.81255888	      0.00000000	      0.00000000
      9.44742857	     -7.46143166	     -5.53189538	     -3.30753664	      0.95089540	      0.93144873	      0.43901301	     41.80108629	     -3.43420851	     -6.89110886	     56.59194477	     56.59194477	      2.92776746	    -12.68167272	      1.19788160	     12.87029891	     -6.97068252	    -11.09057758	     18.24406605	     18.24406605	     13.93734720	     -8.59718875	     -2.22609213	    -13.78945316	      5.34383525	      2.27730335	     -1.82917200	    -14.11800577	     -7.08731657	     52.38748908	     46.36866663	      0.00000000	      0.00000000	     19.11465959	    -16.48847467	     -3.47982163	     68.50710107	     46.91512165	      0.00000000	      0.00000000
      9.45907143	     -7.51288393	     -5.58283055	     -3.42935659	      0.95048991	      0.93114347	      0.43939627	     41.86297147	     -3.13978803	     -7.20161653	     53.21167339	     53.21167339	      2.57535904	    -11.72612438	      0.54688345	     12.08741683	     -6.99128834	    -11.25556579	     17.74556510	     17.74556510	     14.05070730	     -8.49586363	     -2.75555312	    -13.74997845	      5.45256746	      1.56641361	     -1.11479304	    -13.69673848	     -8.02365846	     45.29874661	     46.61287220	      0.00000000	      0.00000000	     19.37690334	    -17.44143476	     -4.09743466	     72.03838885	     47.07102452	      0.00000000	      0.00000000
      9.47071429	     -7.52128281	     -5.58403397	     -3.53590274	      0.95028992	      0.93072153	      0.43966307	     41.70085507	     -2.93647090	     -7.58359786	     49.59576523	     49.59576523	      2.49736639	    -10.33606280	      0.72821099	     11.25274934	     -6.93859785	    -11.39135825	     17.27362541	     17.27362541	     14.36376446	     -8.34598455	     -2.89492675	    -13.77007591	      5.61539546	      2.06247812	     -2.82509231	    -14.17217647	     -8.07322728	     43.18713656	     46.67301363	      0.00000000	      0.00000000	     20.77124880	    -17.26832504	     -4.45484094	     74.10067966	     47.14901894	      0.00000000	      0.00000000
